<svg width="30" height="30" viewBox="0 0 30 30" fill="none" xmlns="http://www.w3.org/2000/svg">
<rect width="30" height="30" rx="8" fill="#1B3A35"/>
<path d="M20.158 19.1341V20.1552H19.8437C19.8217 20.1557 19.8003 20.1562 19.7784 20.1562C19.7565 20.1562 19.734 20.1562 19.7116 20.1562C19.6891 20.1562 19.6672 20.1562 19.6447 20.1562H17.8316C16.8381 20.1562 15.9104 19.8756 15.1234 19.3886C15.0811 19.3629 15.0399 19.3362 14.9987 19.3094C14.7047 19.1159 14.4314 18.893 14.1838 18.6449C13.6486 18.1093 13.2305 17.456 12.9711 16.7278C12.9685 16.7204 12.9663 16.7134 12.9632 16.7059C12.6054 15.7116 11.6537 15.0006 10.5362 15.0006H10.3399C10.3233 14.9994 10.3068 14.9994 10.2902 14.9994C10.2736 14.9994 10.257 14.9994 10.2405 14.9994H9.8464V10.8964H9.84476V9.84375H10.2143C10.2175 9.84375 10.2206 9.84375 10.2239 9.84375C10.2458 9.84375 10.2682 9.84375 10.2907 9.84375C10.3132 9.84375 10.3351 9.84375 10.3576 9.84375H12.1707C13.1642 9.84375 14.0919 10.1244 14.879 10.6114C14.9212 10.6371 14.9624 10.6638 15.0035 10.6906C15.2976 10.8841 15.5709 11.107 15.8184 11.3551C16.3536 11.8907 16.7718 12.544 17.0312 13.2722C17.0338 13.2796 17.036 13.2866 17.0391 13.2941C17.3968 14.2884 18.3486 14.9994 19.4661 14.9994H19.6624C19.6789 15.0006 19.6955 15.0006 19.7121 15.0006C19.7287 15.0006 19.7452 15.0006 19.7618 15.0006H20.1559V19.1346H20.1586L20.158 19.1341Z" fill="#E3D5AB"/>
<path d="M25.3125 14.9999H20.1553V9.85002C23.0004 9.85219 25.3072 12.1563 25.3125 15.0004V14.9999Z" fill="#E3D5AB"/>
<path d="M4.6875 15.0001H9.84464V20.1504C6.99954 20.1483 4.69285 17.8442 4.6875 15.0001Z" fill="#E3D5AB"/>
</svg>
